<?xml version="1.0" standalone="no"?>
<!DOCTYPE svg PUBLIC "-//W3C//DTD SVG 20010904//EN"
 "http://www.w3.org/TR/2001/REC-SVG-20010904/DTD/svg10.dtd">
<svg version="1.0" xmlns="http://www.w3.org/2000/svg"
 width="512.000000pt" height="512.000000pt" viewBox="0 0 512.000000 512.000000"
 preserveAspectRatio="xMidYMid meet">
<metadata>
Created by potrace 1.14, written by Peter Selinger 2001-2017
</metadata>
<g transform="translate(0.000000,512.000000) scale(0.100000,-0.100000)"
fill="#000000" stroke="none">
<path d="M2378 5115 c-1 -1 -39 -5 -82 -9 -44 -4 -82 -9 -85 -11 -4 -2 -34 -7
-66 -10 -117 -14 -472 -111 -499 -136 -6 -5 -16 -9 -23 -9 -29 0 -251 -109
-387 -190 -548 -327 -962 -870 -1140 -1495 -14 -49 -27 -102 -30 -118 -3 -15
-7 -35 -10 -45 -3 -9 -7 -34 -11 -56 -3 -21 -7 -41 -9 -45 -4 -6 -12 -72 -26
-201 -8 -84 -5 -454 4 -515 30 -184 38 -229 52 -290 52 -226 166 -519 270
-692 10 -17 36 -60 57 -95 45 -75 166 -238 237 -319 316 -360 725 -625 1185
-768 123 -38 289 -74 405 -87 30 -3 76 -10 103 -14 48 -7 472 -5 517 4 14 2
45 7 70 10 25 4 92 16 150 27 58 12 115 23 128 25 38 7 320 103 370 125 91 41
245 121 321 166 636 382 1088 1046 1207 1773 38 235 40 574 5 805 -130 854
-704 1608 -1486 1951 -44 20 -89 39 -100 44 -86 38 -365 119 -465 134 -19 3
-46 8 -60 11 -14 3 -45 8 -70 11 -25 3 -56 8 -70 10 -27 6 -456 14 -462 9z
m329 -550 c329 -77 535 -408 459 -736 -43 -189 -156 -331 -332 -418 -163 -81
-374 -81 -536 -1 -257 128 -401 427 -333 695 34 135 130 281 235 358 54 39
154 86 217 101 77 19 213 19 290 1z m-1353 -1417 c201 -63 361 -248 407 -468
16 -75 6 -230 -20 -307 -112 -334 -485 -509 -811 -381 -355 139 -499 567 -302
893 150 247 442 353 726 263z m2770 0 c222 -61 391 -235 442 -455 47 -202 -11
-410 -154 -560 -125 -131 -271 -195 -447 -194 -135 0 -249 36 -358 114 -161
116 -251 287 -256 487 -3 108 12 175 59 275 78 168 206 277 390 331 98 29 224
30 324 2z m-1449 -346 c55 -28 99 -71 126 -123 32 -60 33 -176 2 -234 -89
-168 -303 -204 -432 -73 -51 51 -74 104 -77 179 -6 124 71 229 196 270 41 14
142 3 185 -19z m20 -1047 c191 -50 336 -168 415 -337 43 -92 57 -155 58 -263
2 -251 -145 -471 -378 -568 -232 -96 -486 -47 -667 130 -271 263 -239 708 67
935 69 51 158 91 241 107 72 14 201 12 264 -4z"/>
</g>
</svg>
